<?xml version="1.0" encoding="utf-8" standalone="no"?>
<!DOCTYPE svg PUBLIC "-//W3C//DTD SVG 1.1//EN"
  "http://www.w3.org/Graphics/SVG/1.1/DTD/svg11.dtd">
<svg xmlns:xlink="http://www.w3.org/1999/xlink" width="864pt" height="576pt" viewBox="0 0 864 576" xmlns="http://www.w3.org/2000/svg" version="1.1">
 <metadata>
  <rdf:RDF xmlns:dc="http://purl.org/dc/elements/1.1/" xmlns:cc="http://creativecommons.org/ns#" xmlns:rdf="http://www.w3.org/1999/02/22-rdf-syntax-ns#">
   <cc:Work>
    <dc:type rdf:resource="http://purl.org/dc/dcmitype/StillImage"/>
    <dc:date>2025-10-01T15:30:01.520679</dc:date>
    <dc:format>image/svg+xml</dc:format>
    <dc:creator>
     <cc:Agent>
      <dc:title>Matplotlib v3.10.5, https://matplotlib.org/</dc:title>
     </cc:Agent>
    </dc:creator>
   </cc:Work>
  </rdf:RDF>
 </metadata>
 <defs>
  <style type="text/css">*{stroke-linejoin: round; stroke-linecap: butt}</style>
 </defs>
 <g id="figure_1">
  <g id="patch_1">
   <path d="M 0 576 
L 864 576 
L 864 0 
L 0 0 
z
" style="fill: #ffffff"/>
  </g>
  <g id="patch_2">
   <path d="M 0 576 
L 864 576 
L 864 0 
L 0 0 
L 0 576 
z
" style="fill: none; stroke: #ffffff; stroke-linejoin: miter"/>
  </g>
  <g id="axes_1">
   <g id="patch_3">
    <path d="M 86.445937 511.18625 
L 552.953437 511.18625 
L 552.953437 38.571875 
L 86.445937 38.571875 
z
" style="fill: #ffffff"/>
   </g>
   <g id="matplotlib.axis_1">
    <g id="xtick_1">
     <g id="line2d_1">
      <path d="M 117.048751 511.18625 
L 117.048751 38.571875 
" clip-path="url(#pef316d4c9a)" style="fill: none; stroke: #e5e5e5; stroke-linecap: square"/>
     </g>
     <g id="line2d_2">
      <path d="M 117.048751 511.18625 
" style="fill: none; stroke: #333333; stroke-width: 1.5; stroke-linecap: square"/>
      <defs>
       <path id="m48c092c5ac" d="M 0 0 
L 0 2.75 
" style="stroke: #333333"/>
      </defs>
      <g>
       <use xlink:href="#m48c092c5ac" x="117.048751" y="511.18625" style="fill: #333333; stroke: #333333"/>
      </g>
     </g>
     <g id="text_1">
      <!-- -0.5 -->
      <g style="fill: #4d4d4d" transform="translate(95.586719 532.852813) scale(0.22 -0.22)">
       <defs>
        <path id="DejaVuSans-2d" d="M 313 2009 
L 1997 2009 
L 1997 1497 
L 313 1497 
L 313 2009 
z
" transform="scale(0.015625)"/>
        <path id="DejaVuSans-30" d="M 2034 4250 
Q 1547 4250 1301 3770 
Q 1056 3291 1056 2328 
Q 1056 1369 1301 889 
Q 1547 409 2034 409 
Q 2525 409 2770 889 
Q 3016 1369 3016 2328 
Q 3016 3291 2770 3770 
Q 2525 4250 2034 4250 
z
M 2034 4750 
Q 2819 4750 3233 4129 
Q 3647 3509 3647 2328 
Q 3647 1150 3233 529 
Q 2819 -91 2034 -91 
Q 1250 -91 836 529 
Q 422 1150 422 2328 
Q 422 3509 836 4129 
Q 1250 4750 2034 4750 
z
" transform="scale(0.015625)"/>
        <path id="DejaVuSans-2e" d="M 684 794 
L 1344 794 
L 1344 0 
L 684 0 
L 684 794 
z
" transform="scale(0.015625)"/>
        <path id="DejaVuSans-35" d="M 691 4666 
L 3169 4666 
L 3169 4134 
L 1269 4134 
L 1269 2991 
Q 1406 3038 1543 3061 
Q 1681 3084 1819 3084 
Q 2600 3084 3056 2656 
Q 3513 2228 3513 1497 
Q 3513 744 3044 326 
Q 2575 -91 1722 -91 
Q 1428 -91 1123 -41 
Q 819 9 494 109 
L 494 744 
Q 775 591 1075 516 
Q 1375 441 1709 441 
Q 2250 441 2565 725 
Q 2881 1009 2881 1497 
Q 2881 1984 2565 2268 
Q 2250 2553 1709 2553 
Q 1456 2553 1204 2497 
Q 953 2441 691 2322 
L 691 4666 
z
" transform="scale(0.015625)"/>
       </defs>
       <use xlink:href="#DejaVuSans-2d"/>
       <use xlink:href="#DejaVuSans-30" transform="translate(36.083984 0)"/>
       <use xlink:href="#DejaVuSans-2e" transform="translate(99.707031 0)"/>
       <use xlink:href="#DejaVuSans-35" transform="translate(131.494141 0)"/>
      </g>
     </g>
    </g>
    <g id="xtick_2">
     <g id="line2d_3">
      <path d="M 275.832202 511.18625 
L 275.832202 38.571875 
" clip-path="url(#pef316d4c9a)" style="fill: none; stroke: #e5e5e5; stroke-linecap: square"/>
     </g>
     <g id="line2d_4">
      <path d="M 275.832202 511.18625 
" style="fill: none; stroke: #333333; stroke-width: 1.5; stroke-linecap: square"/>
      <g>
       <use xlink:href="#m48c092c5ac" x="275.832202" y="511.18625" style="fill: #333333; stroke: #333333"/>
      </g>
     </g>
     <g id="text_2">
      <!-- 0.0 -->
      <g style="fill: #4d4d4d" transform="translate(258.338764 532.852813) scale(0.22 -0.22)">
       <use xlink:href="#DejaVuSans-30"/>
       <use xlink:href="#DejaVuSans-2e" transform="translate(63.623047 0)"/>
       <use xlink:href="#DejaVuSans-30" transform="translate(95.410156 0)"/>
      </g>
     </g>
    </g>
    <g id="xtick_3">
     <g id="line2d_5">
      <path d="M 434.615653 511.18625 
L 434.615653 38.571875 
" clip-path="url(#pef316d4c9a)" style="fill: none; stroke: #e5e5e5; stroke-linecap: square"/>
     </g>
     <g id="line2d_6">
      <path d="M 434.615653 511.18625 
" style="fill: none; stroke: #333333; stroke-width: 1.5; stroke-linecap: square"/>
      <g>
       <use xlink:href="#m48c092c5ac" x="434.615653" y="511.18625" style="fill: #333333; stroke: #333333"/>
      </g>
     </g>
     <g id="text_3">
      <!-- 0.5 -->
      <g style="fill: #4d4d4d" transform="translate(417.122215 532.852813) scale(0.22 -0.22)">
       <use xlink:href="#DejaVuSans-30"/>
       <use xlink:href="#DejaVuSans-2e" transform="translate(63.623047 0)"/>
       <use xlink:href="#DejaVuSans-35" transform="translate(95.410156 0)"/>
      </g>
     </g>
    </g>
    <g id="xtick_4">
     <g id="line2d_7">
      <path d="M 196.440476 511.18625 
L 196.440476 38.571875 
" clip-path="url(#pef316d4c9a)" style="fill: none; stroke: #fafafa; stroke-width: 0.5; stroke-linecap: square"/>
     </g>
    </g>
    <g id="xtick_5">
     <g id="line2d_8">
      <path d="M 355.223927 511.18625 
L 355.223927 38.571875 
" clip-path="url(#pef316d4c9a)" style="fill: none; stroke: #fafafa; stroke-width: 0.5; stroke-linecap: square"/>
     </g>
    </g>
    <g id="xtick_6">
     <g id="line2d_9">
      <path d="M 514.007378 511.18625 
L 514.007378 38.571875 
" clip-path="url(#pef316d4c9a)" style="fill: none; stroke: #fafafa; stroke-width: 0.5; stroke-linecap: square"/>
     </g>
    </g>
   </g>
   <g id="matplotlib.axis_2">
    <g id="ytick_1">
     <g id="line2d_10">
      <path d="M 86.445937 429.296636 
L 552.953437 429.296636 
" clip-path="url(#pef316d4c9a)" style="fill: none; stroke: #e5e5e5; stroke-linecap: square"/>
     </g>
     <g id="line2d_11">
      <path d="M 86.445937 429.296636 
" style="fill: none; stroke: #333333; stroke-width: 1.5; stroke-linecap: square"/>
      <defs>
       <path id="m40dcbc1582" d="M 0 0 
L -2.75 0 
" style="stroke: #333333"/>
      </defs>
      <g>
       <use xlink:href="#m40dcbc1582" x="86.445937" y="429.296636" style="fill: #333333; stroke: #333333"/>
      </g>
     </g>
     <g id="text_4">
      <!-- -0.4 -->
      <g style="fill: #4d4d4d" transform="translate(38.571875 437.654917) scale(0.22 -0.22)">
       <defs>
        <path id="DejaVuSans-34" d="M 2419 4116 
L 825 1625 
L 2419 1625 
L 2419 4116 
z
M 2253 4666 
L 3047 4666 
L 3047 1625 
L 3713 1625 
L 3713 1100 
L 3047 1100 
L 3047 0 
L 2419 0 
L 2419 1100 
L 313 1100 
L 313 1709 
L 2253 4666 
z
" transform="scale(0.015625)"/>
       </defs>
       <use xlink:href="#DejaVuSans-2d"/>
       <use xlink:href="#DejaVuSans-30" transform="translate(36.083984 0)"/>
       <use xlink:href="#DejaVuSans-2e" transform="translate(99.707031 0)"/>
       <use xlink:href="#DejaVuSans-34" transform="translate(131.494141 0)"/>
      </g>
     </g>
    </g>
    <g id="ytick_2">
     <g id="line2d_12">
      <path d="M 86.445937 305.586683 
L 552.953437 305.586683 
" clip-path="url(#pef316d4c9a)" style="fill: none; stroke: #e5e5e5; stroke-linecap: square"/>
     </g>
     <g id="line2d_13">
      <path d="M 86.445937 305.586683 
" style="fill: none; stroke: #333333; stroke-width: 1.5; stroke-linecap: square"/>
      <g>
       <use xlink:href="#m40dcbc1582" x="86.445937" y="305.586683" style="fill: #333333; stroke: #333333"/>
      </g>
     </g>
     <g id="text_5">
      <!-- 0.0 -->
      <g style="fill: #4d4d4d" transform="translate(46.509062 313.944964) scale(0.22 -0.22)">
       <use xlink:href="#DejaVuSans-30"/>
       <use xlink:href="#DejaVuSans-2e" transform="translate(63.623047 0)"/>
       <use xlink:href="#DejaVuSans-30" transform="translate(95.410156 0)"/>
      </g>
     </g>
    </g>
    <g id="ytick_3">
     <g id="line2d_14">
      <path d="M 86.445937 181.87673 
L 552.953437 181.87673 
" clip-path="url(#pef316d4c9a)" style="fill: none; stroke: #e5e5e5; stroke-linecap: square"/>
     </g>
     <g id="line2d_15">
      <path d="M 86.445937 181.87673 
" style="fill: none; stroke: #333333; stroke-width: 1.5; stroke-linecap: square"/>
      <g>
       <use xlink:href="#m40dcbc1582" x="86.445937" y="181.87673" style="fill: #333333; stroke: #333333"/>
      </g>
     </g>
     <g id="text_6">
      <!-- 0.4 -->
      <g style="fill: #4d4d4d" transform="translate(46.509062 190.235011) scale(0.22 -0.22)">
       <use xlink:href="#DejaVuSans-30"/>
       <use xlink:href="#DejaVuSans-2e" transform="translate(63.623047 0)"/>
       <use xlink:href="#DejaVuSans-34" transform="translate(95.410156 0)"/>
      </g>
     </g>
    </g>
    <g id="ytick_4">
     <g id="line2d_16">
      <path d="M 86.445937 58.166777 
L 552.953437 58.166777 
" clip-path="url(#pef316d4c9a)" style="fill: none; stroke: #e5e5e5; stroke-linecap: square"/>
     </g>
     <g id="line2d_17">
      <path d="M 86.445937 58.166777 
" style="fill: none; stroke: #333333; stroke-width: 1.5; stroke-linecap: square"/>
      <g>
       <use xlink:href="#m40dcbc1582" x="86.445937" y="58.166777" style="fill: #333333; stroke: #333333"/>
      </g>
     </g>
     <g id="text_7">
      <!-- 0.8 -->
      <g style="fill: #4d4d4d" transform="translate(46.509062 66.525058) scale(0.22 -0.22)">
       <defs>
        <path id="DejaVuSans-38" d="M 2034 2216 
Q 1584 2216 1326 1975 
Q 1069 1734 1069 1313 
Q 1069 891 1326 650 
Q 1584 409 2034 409 
Q 2484 409 2743 651 
Q 3003 894 3003 1313 
Q 3003 1734 2745 1975 
Q 2488 2216 2034 2216 
z
M 1403 2484 
Q 997 2584 770 2862 
Q 544 3141 544 3541 
Q 544 4100 942 4425 
Q 1341 4750 2034 4750 
Q 2731 4750 3128 4425 
Q 3525 4100 3525 3541 
Q 3525 3141 3298 2862 
Q 3072 2584 2669 2484 
Q 3125 2378 3379 2068 
Q 3634 1759 3634 1313 
Q 3634 634 3220 271 
Q 2806 -91 2034 -91 
Q 1263 -91 848 271 
Q 434 634 434 1313 
Q 434 1759 690 2068 
Q 947 2378 1403 2484 
z
M 1172 3481 
Q 1172 3119 1398 2916 
Q 1625 2713 2034 2713 
Q 2441 2713 2670 2916 
Q 2900 3119 2900 3481 
Q 2900 3844 2670 4047 
Q 2441 4250 2034 4250 
Q 1625 4250 1398 4047 
Q 1172 3844 1172 3481 
z
" transform="scale(0.015625)"/>
       </defs>
       <use xlink:href="#DejaVuSans-30"/>
       <use xlink:href="#DejaVuSans-2e" transform="translate(63.623047 0)"/>
       <use xlink:href="#DejaVuSans-38" transform="translate(95.410156 0)"/>
      </g>
     </g>
    </g>
    <g id="ytick_5">
     <g id="line2d_18">
      <path d="M 86.445937 491.151612 
L 552.953437 491.151612 
" clip-path="url(#pef316d4c9a)" style="fill: none; stroke: #fafafa; stroke-width: 0.5; stroke-linecap: square"/>
     </g>
    </g>
    <g id="ytick_6">
     <g id="line2d_19">
      <path d="M 86.445937 367.441659 
L 552.953437 367.441659 
" clip-path="url(#pef316d4c9a)" style="fill: none; stroke: #fafafa; stroke-width: 0.5; stroke-linecap: square"/>
     </g>
    </g>
    <g id="ytick_7">
     <g id="line2d_20">
      <path d="M 86.445937 243.731706 
L 552.953437 243.731706 
" clip-path="url(#pef316d4c9a)" style="fill: none; stroke: #fafafa; stroke-width: 0.5; stroke-linecap: square"/>
     </g>
    </g>
    <g id="ytick_8">
     <g id="line2d_21">
      <path d="M 86.445937 120.021754 
L 552.953437 120.021754 
" clip-path="url(#pef316d4c9a)" style="fill: none; stroke: #fafafa; stroke-width: 0.5; stroke-linecap: square"/>
     </g>
    </g>
   </g>
   <g id="PolyCollection_1">
    <path d="M 269.926144 125.772075 
L 241.870614 100.529139 
L 238.470323 97.671846 
L 191.719451 60.054347 
L 178.255955 122.117165 
L 172.383667 158.873716 
L 179.171733 157.907211 
L 263.991279 129.123175 
z
" clip-path="url(#pef316d4c9a)" style="fill: #9a9a9a; fill-opacity: 0.298039"/>
    <path d="M 107.650824 489.703778 
L 165.330618 471.466852 
L 169.571595 470.02765 
L 205.193301 456.602138 
L 200.939809 451.360249 
L 132.933988 394.214398 
L 126.986608 390.884409 
L 118.56723 427.168262 
z
" clip-path="url(#pef316d4c9a)" style="fill: #b24745; fill-opacity: 0.298039"/>
    <path d="M 434.193559 372.204152 
L 434.206074 378.885242 
L 470.680981 367.844324 
L 474.921959 366.405122 
L 531.748551 345.783601 
L 483.291275 303.396909 
L 453.541858 280.065872 
L 451.007284 286.274265 
z
" clip-path="url(#pef316d4c9a)" style="fill: #00a1d5; fill-opacity: 0.298039"/>
    <path d="M 191.719451 60.054347 
L 185.834647 90.129807 
L 192.622714 89.163302 
L 213.8276 81.967293 
L 215.521488 80.055394 
z
" clip-path="url(#pef316d4c9a)" style="fill: #9a9a9a; fill-opacity: 0.6"/>
    <path d="M 107.650824 489.703778 
L 137.337665 479.629366 
L 136.484463 477.24477 
L 119.483008 462.958307 
L 113.535628 459.628318 
z
" clip-path="url(#pef316d4c9a)" style="fill: #b24745; fill-opacity: 0.6"/>
    <path d="M 531.748551 345.783601 
L 507.946514 325.782553 
L 505.41194 331.990946 
L 501.208509 353.473417 
L 502.06171 355.858013 
z
" clip-path="url(#pef316d4c9a)" style="fill: #00a1d5; fill-opacity: 0.6"/>
   </g>
   <g id="PathCollection_1">
    <path d="M 362.586039 233.514995 
C 363.643675 233.514995 364.658135 233.094791 365.405996 232.34693 
C 366.153857 231.599069 366.57406 230.584609 366.57406 229.526973 
C 366.57406 228.469338 366.153857 227.454878 365.405996 226.707017 
C 364.658135 225.959155 363.643675 225.538952 362.586039 225.538952 
C 361.528404 225.538952 360.513944 225.959155 359.766082 226.707017 
C 359.018221 227.454878 358.598018 228.469338 358.598018 229.526973 
C 358.598018 230.584609 359.018221 231.599069 359.766082 232.34693 
C 360.513944 233.094791 361.528404 233.514995 362.586039 233.514995 
z
" clip-path="url(#pef316d4c9a)" style="fill: #9a9a9a; stroke: #9a9a9a; stroke-width: 0.886227"/>
    <path d="M 192.669188 121.38903 
C 193.726824 121.38903 194.741284 120.968827 195.489145 120.220965 
C 196.237006 119.473104 196.657209 118.458644 196.657209 117.401009 
C 196.657209 116.343373 196.237006 115.328913 195.489145 114.581052 
C 194.741284 113.83319 193.726824 113.412987 192.669188 113.412987 
C 191.611553 113.412987 190.597093 113.83319 189.849231 114.581052 
C 189.10137 115.328913 188.681167 116.343373 188.681167 117.401009 
C 188.681167 118.458644 189.10137 119.473104 189.849231 120.220965 
C 190.597093 120.968827 191.611553 121.38903 192.669188 121.38903 
z
" clip-path="url(#pef316d4c9a)" style="fill: #9a9a9a; stroke: #9a9a9a; stroke-width: 0.886227"/>
    <path d="M 304.864171 389.980723 
C 305.921807 389.980723 306.936267 389.56052 307.684128 388.812659 
C 308.431989 388.064797 308.852192 387.050337 308.852192 385.992702 
C 308.852192 384.935066 308.431989 383.920606 307.684128 383.172745 
C 306.936267 382.424884 305.921807 382.004681 304.864171 382.004681 
C 303.806535 382.004681 302.792076 382.424884 302.044214 383.172745 
C 301.296353 383.920606 300.87615 384.935066 300.87615 385.992702 
C 300.87615 387.050337 301.296353 388.064797 302.044214 388.812659 
C 302.792076 389.56052 303.806535 389.980723 304.864171 389.980723 
z
" clip-path="url(#pef316d4c9a)" style="fill: #9a9a9a; stroke: #9a9a9a; stroke-width: 0.886227"/>
    <path d="M 214.855528 99.878047 
C 215.913163 99.878047 216.927623 99.457844 217.675484 98.709982 
C 218.423346 97.962121 218.843549 96.947661 218.843549 95.890026 
C 218.843549 94.83239 218.423346 93.81793 217.675484 93.070069 
C 216.927623 92.322208 215.913163 91.902005 214.855528 91.902005 
C 213.797892 91.902005 212.783432 92.322208 212.035571 93.070069 
C 211.28771 93.81793 210.867507 94.83239 210.867507 95.890026 
C 210.867507 96.947661 211.28771 97.962121 212.035571 98.709982 
C 212.783432 99.457844 213.797892 99.878047 214.855528 99.878047 
z
" clip-path="url(#pef316d4c9a)" style="fill: #9a9a9a; stroke: #9a9a9a; stroke-width: 0.886227"/>
    <path d="M 455.737129 306.60233 
C 456.794765 306.60233 457.809225 306.182127 458.557086 305.434265 
C 459.304947 304.686404 459.72515 303.671944 459.72515 302.614309 
C 459.72515 301.556673 459.304947 300.542213 458.557086 299.794352 
C 457.809225 299.046491 456.794765 298.626287 455.737129 298.626287 
C 454.679494 298.626287 453.665034 299.046491 452.917172 299.794352 
C 452.169311 300.542213 451.749108 301.556673 451.749108 302.614309 
C 451.749108 303.671944 452.169311 304.686404 452.917172 305.434265 
C 453.665034 306.182127 454.679494 306.60233 455.737129 306.60233 
z
" clip-path="url(#pef316d4c9a)" style="fill: #9a9a9a; stroke: #9a9a9a; stroke-width: 0.886227"/>
    <path d="M 167.721248 306.128645 
C 168.778883 306.128645 169.793343 305.708442 170.541204 304.960581 
C 171.289066 304.21272 171.709269 303.19826 171.709269 302.140624 
C 171.709269 301.082988 171.289066 300.068529 170.541204 299.320667 
C 169.793343 298.572806 168.778883 298.152603 167.721248 298.152603 
C 166.663612 298.152603 165.649152 298.572806 164.901291 299.320667 
C 164.15343 300.068529 163.733226 301.082988 163.733226 302.140624 
C 163.733226 303.19826 164.15343 304.21272 164.901291 304.960581 
C 165.649152 305.708442 166.663612 306.128645 167.721248 306.128645 
z
" clip-path="url(#pef316d4c9a)" style="fill: #9a9a9a; stroke: #9a9a9a; stroke-width: 0.886227"/>
    <path d="M 295.190163 410.558418 
C 296.247798 410.558418 297.262258 410.138215 298.01012 409.390354 
C 298.757981 408.642493 299.178184 407.628033 299.178184 406.570397 
C 299.178184 405.512761 298.757981 404.498301 298.01012 403.75044 
C 297.262258 403.002579 296.247798 402.582376 295.190163 402.582376 
C 294.132527 402.582376 293.118067 403.002579 292.370206 403.75044 
C 291.622345 404.498301 291.202142 405.512761 291.202142 406.570397 
C 291.202142 407.628033 291.622345 408.642493 292.370206 409.390354 
C 293.118067 410.138215 294.132527 410.558418 295.190163 410.558418 
z
" clip-path="url(#pef316d4c9a)" style="fill: #9a9a9a; stroke: #9a9a9a; stroke-width: 0.886227"/>
    <path d="M 196.479355 77.407544 
C 197.536991 77.407544 198.551451 76.987341 199.299312 76.23948 
C 200.047173 75.491619 200.467376 74.477159 200.467376 73.419523 
C 200.467376 72.361888 200.047173 71.347428 199.299312 70.599566 
C 198.551451 69.851705 197.536991 69.431502 196.479355 69.431502 
C 195.42172 69.431502 194.40726 69.851705 193.659398 70.599566 
C 192.911537 71.347428 192.491334 72.361888 192.491334 73.419523 
C 192.491334 74.477159 192.911537 75.491619 193.659398 76.23948 
C 194.40726 76.987341 195.42172 77.407544 196.479355 77.407544 
z
" clip-path="url(#pef316d4c9a)" style="fill: #9a9a9a; stroke: #9a9a9a; stroke-width: 0.886227"/>
    <path d="M 236.337541 146.186889 
C 237.395177 146.186889 238.409637 145.766686 239.157498 145.018825 
C 239.90536 144.270964 240.325563 143.256504 240.325563 142.198868 
C 240.325563 141.141232 239.90536 140.126773 239.157498 139.378911 
C 238.409637 138.63105 237.395177 138.210847 236.337541 138.210847 
C 235.279906 138.210847 234.265446 138.63105 233.517585 139.378911 
C 232.769723 140.126773 232.34952 141.141232 232.34952 142.198868 
C 232.34952 143.256504 232.769723 144.270964 233.517585 145.018825 
C 234.265446 145.766686 235.279906 146.186889 236.337541 146.186889 
z
" clip-path="url(#pef316d4c9a)" style="fill: #9a9a9a; stroke: #9a9a9a; stroke-width: 0.886227"/>
    <path d="M 417.589245 376.205158 
C 418.646881 376.205158 419.661341 375.784955 420.409202 375.037094 
C 421.157064 374.289232 421.577267 373.274772 421.577267 372.217137 
C 421.577267 371.159501 421.157064 370.145041 420.409202 369.39718 
C 419.661341 368.649319 418.646881 368.229116 417.589245 368.229116 
C 416.53161 368.229116 415.51715 368.649319 414.769289 369.39718 
C 414.021427 370.145041 413.601224 371.159501 413.601224 372.217137 
C 413.601224 373.274772 414.021427 374.289232 414.769289 375.037094 
C 415.51715 375.784955 416.53161 376.205158 417.589245 376.205158 
z
" clip-path="url(#pef316d4c9a)" style="fill: #9a9a9a; stroke: #9a9a9a; stroke-width: 0.886227"/>
    <path d="M 195.504842 124.377807 
C 196.562478 124.377807 197.576938 123.957604 198.324799 123.209742 
C 199.07266 122.461881 199.492863 121.447421 199.492863 120.389785 
C 199.492863 119.33215 199.07266 118.31769 198.324799 117.569829 
C 197.576938 116.821967 196.562478 116.401764 195.504842 116.401764 
C 194.447207 116.401764 193.432747 116.821967 192.684885 117.569829 
C 191.937024 118.31769 191.516821 119.33215 191.516821 120.389785 
C 191.516821 121.447421 191.937024 122.461881 192.684885 123.209742 
C 193.432747 123.957604 194.447207 124.377807 195.504842 124.377807 
z
" clip-path="url(#pef316d4c9a)" style="fill: #9a9a9a; stroke: #9a9a9a; stroke-width: 0.886227"/>
    <path d="M 250.682536 245.751662 
C 251.740171 245.751662 252.754631 245.331459 253.502493 244.583597 
C 254.250354 243.835736 254.670557 242.821276 254.670557 241.763641 
C 254.670557 240.706005 254.250354 239.691545 253.502493 238.943684 
C 252.754631 238.195822 251.740171 237.775619 250.682536 237.775619 
C 249.6249 237.775619 248.61044 238.195822 247.862579 238.943684 
C 247.114718 239.691545 246.694515 240.706005 246.694515 241.763641 
C 246.694515 242.821276 247.114718 243.835736 247.862579 244.583597 
C 248.61044 245.331459 249.6249 245.751662 250.682536 245.751662 
z
" clip-path="url(#pef316d4c9a)" style="fill: #9a9a9a; stroke: #9a9a9a; stroke-width: 0.886227"/>
    <path d="M 297.333016 283.112138 
C 298.390652 283.112138 299.405112 282.691935 300.152973 281.944073 
C 300.900834 281.196212 301.321037 280.181752 301.321037 279.124116 
C 301.321037 278.066481 300.900834 277.052021 300.152973 276.30416 
C 299.405112 275.556298 298.390652 275.136095 297.333016 275.136095 
C 296.275381 275.136095 295.260921 275.556298 294.513059 276.30416 
C 293.765198 277.052021 293.344995 278.066481 293.344995 279.124116 
C 293.344995 280.181752 293.765198 281.196212 294.513059 281.944073 
C 295.260921 282.691935 296.275381 283.112138 297.333016 283.112138 
z
" clip-path="url(#pef316d4c9a)" style="fill: #9a9a9a; stroke: #9a9a9a; stroke-width: 0.886227"/>
    <path d="M 208.308196 87.395868 
C 209.365832 87.395868 210.380292 86.975665 211.128153 86.227804 
C 211.876014 85.479943 212.296217 84.465483 212.296217 83.407847 
C 212.296217 82.350211 211.876014 81.335751 211.128153 80.58789 
C 210.380292 79.840029 209.365832 79.419826 208.308196 79.419826 
C 207.250561 79.419826 206.236101 79.840029 205.488239 80.58789 
C 204.740378 81.335751 204.320175 82.350211 204.320175 83.407847 
C 204.320175 84.465483 204.740378 85.479943 205.488239 86.227804 
C 206.236101 86.975665 207.250561 87.395868 208.308196 87.395868 
z
" clip-path="url(#pef316d4c9a)" style="fill: #9a9a9a; stroke: #9a9a9a; stroke-width: 0.886227"/>
    <path d="M 195.723759 78.150351 
C 196.781395 78.150351 197.795855 77.730148 198.543716 76.982287 
C 199.291577 76.234426 199.711781 75.219966 199.711781 74.16233 
C 199.711781 73.104695 199.291577 72.090235 198.543716 71.342373 
C 197.795855 70.594512 196.781395 70.174309 195.723759 70.174309 
C 194.666124 70.174309 193.651664 70.594512 192.903803 71.342373 
C 192.155941 72.090235 191.735738 73.104695 191.735738 74.16233 
C 191.735738 75.219966 192.155941 76.234426 192.903803 76.982287 
C 193.651664 77.730148 194.666124 78.150351 195.723759 78.150351 
z
" clip-path="url(#pef316d4c9a)" style="fill: #9a9a9a; stroke: #9a9a9a; stroke-width: 0.886227"/>
    <path d="M 362.647973 402.411378 
C 363.705609 402.411378 364.720069 401.991175 365.46793 401.243314 
C 366.215791 400.495452 366.635994 399.480992 366.635994 398.423357 
C 366.635994 397.365721 366.215791 396.351261 365.46793 395.6034 
C 364.720069 394.855539 363.705609 394.435336 362.647973 394.435336 
C 361.590338 394.435336 360.575878 394.855539 359.828016 395.6034 
C 359.080155 396.351261 358.659952 397.365721 358.659952 398.423357 
C 358.659952 399.480992 359.080155 400.495452 359.828016 401.243314 
C 360.575878 401.991175 361.590338 402.411378 362.647973 402.411378 
z
" clip-path="url(#pef316d4c9a)" style="fill: #b24745; stroke: #b24745; stroke-width: 0.886227"/>
    <path d="M 182.850559 304.510129 
C 183.908195 304.510129 184.922655 304.089926 185.670516 303.342065 
C 186.418378 302.594203 186.838581 301.579744 186.838581 300.522108 
C 186.838581 299.464472 186.418378 298.450012 185.670516 297.702151 
C 184.922655 296.95429 183.908195 296.534087 182.850559 296.534087 
C 181.792924 296.534087 180.778464 296.95429 180.030603 297.702151 
C 179.282741 298.450012 178.862538 299.464472 178.862538 300.522108 
C 178.862538 301.579744 179.282741 302.594203 180.030603 303.342065 
C 180.778464 304.089926 181.792924 304.510129 182.850559 304.510129 
z
" clip-path="url(#pef316d4c9a)" style="fill: #b24745; stroke: #b24745; stroke-width: 0.886227"/>
    <path d="M 286.333997 395.550761 
C 287.391632 395.550761 288.406092 395.130558 289.153953 394.382696 
C 289.901815 393.634835 290.322018 392.620375 290.322018 391.562739 
C 290.322018 390.505104 289.901815 389.490644 289.153953 388.742783 
C 288.406092 387.994921 287.391632 387.574718 286.333997 387.574718 
C 285.276361 387.574718 284.261901 387.994921 283.51404 388.742783 
C 282.766179 389.490644 282.345975 390.505104 282.345975 391.562739 
C 282.345975 392.620375 282.766179 393.634835 283.51404 394.382696 
C 284.261901 395.130558 285.276361 395.550761 286.333997 395.550761 
z
" clip-path="url(#pef316d4c9a)" style="fill: #b24745; stroke: #b24745; stroke-width: 0.886227"/>
    <path d="M 135.20937 470.091629 
C 136.267006 470.091629 137.281466 469.671426 138.029327 468.923564 
C 138.777189 468.175703 139.197392 467.161243 139.197392 466.103607 
C 139.197392 465.045972 138.777189 464.031512 138.029327 463.283651 
C 137.281466 462.535789 136.267006 462.115586 135.20937 462.115586 
C 134.151735 462.115586 133.137275 462.535789 132.389414 463.283651 
C 131.641552 464.031512 131.221349 465.045972 131.221349 466.103607 
C 131.221349 467.161243 131.641552 468.175703 132.389414 468.923564 
C 133.137275 469.671426 134.151735 470.091629 135.20937 470.091629 
z
" clip-path="url(#pef316d4c9a)" style="fill: #b24745; stroke: #b24745; stroke-width: 0.886227"/>
    <path d="M 112.426401 469.355993 
C 113.484037 469.355993 114.498497 468.93579 115.246358 468.187928 
C 115.994219 467.440067 116.414422 466.425607 116.414422 465.367971 
C 116.414422 464.310336 115.994219 463.295876 115.246358 462.548015 
C 114.498497 461.800153 113.484037 461.37995 112.426401 461.37995 
C 111.368766 461.37995 110.354306 461.800153 109.606444 462.548015 
C 108.858583 463.295876 108.43838 464.310336 108.43838 465.367971 
C 108.43838 466.425607 108.858583 467.440067 109.606444 468.187928 
C 110.354306 468.93579 111.368766 469.355993 112.426401 469.355993 
z
" clip-path="url(#pef316d4c9a)" style="fill: #b24745; stroke: #b24745; stroke-width: 0.886227"/>
    <path d="M 248.83765 250.553965 
C 249.895285 250.553965 250.909745 250.133762 251.657606 249.3859 
C 252.405468 248.638039 252.825671 247.623579 252.825671 246.565944 
C 252.825671 245.508308 252.405468 244.493848 251.657606 243.745987 
C 250.909745 242.998126 249.895285 242.577922 248.83765 242.577922 
C 247.780014 242.577922 246.765554 242.998126 246.017693 243.745987 
C 245.269831 244.493848 244.849628 245.508308 244.849628 246.565944 
C 244.849628 247.623579 245.269831 248.638039 246.017693 249.3859 
C 246.765554 250.133762 247.780014 250.553965 248.83765 250.553965 
z
" clip-path="url(#pef316d4c9a)" style="fill: #b24745; stroke: #b24745; stroke-width: 0.886227"/>
    <path d="M 109.115908 493.127951 
C 110.173543 493.127951 111.188003 492.707748 111.935865 491.959887 
C 112.683726 491.212025 113.103929 490.197565 113.103929 489.13993 
C 113.103929 488.082294 112.683726 487.067834 111.935865 486.319973 
C 111.188003 485.572112 110.173543 485.151909 109.115908 485.151909 
C 108.058272 485.151909 107.043812 485.572112 106.295951 486.319973 
C 105.54809 487.067834 105.127887 488.082294 105.127887 489.13993 
C 105.127887 490.197565 105.54809 491.212025 106.295951 491.959887 
C 107.043812 492.707748 108.058272 493.127951 109.115908 493.127951 
z
" clip-path="url(#pef316d4c9a)" style="fill: #b24745; stroke: #b24745; stroke-width: 0.886227"/>
    <path d="M 114.963213 480.887924 
C 116.020848 480.887924 117.035308 480.467721 117.783169 479.71986 
C 118.531031 478.971999 118.951234 477.957539 118.951234 476.899903 
C 118.951234 475.842267 118.531031 474.827807 117.783169 474.079946 
C 117.035308 473.332085 116.020848 472.911882 114.963213 472.911882 
C 113.905577 472.911882 112.891117 473.332085 112.143256 474.079946 
C 111.395395 474.827807 110.975191 475.842267 110.975191 476.899903 
C 110.975191 477.957539 111.395395 478.971999 112.143256 479.71986 
C 112.891117 480.467721 113.905577 480.887924 114.963213 480.887924 
z
" clip-path="url(#pef316d4c9a)" style="fill: #b24745; stroke: #b24745; stroke-width: 0.886227"/>
    <path d="M 221.806106 373.080521 
C 222.863742 373.080521 223.878202 372.660318 224.626063 371.912457 
C 225.373924 371.164595 225.794128 370.150135 225.794128 369.0925 
C 225.794128 368.034864 225.373924 367.020404 224.626063 366.272543 
C 223.878202 365.524682 222.863742 365.104479 221.806106 365.104479 
C 220.748471 365.104479 219.734011 365.524682 218.98615 366.272543 
C 218.238288 367.020404 217.818085 368.034864 217.818085 369.0925 
C 217.818085 370.150135 218.238288 371.164595 218.98615 371.912457 
C 219.734011 372.660318 220.748471 373.080521 221.806106 373.080521 
z
" clip-path="url(#pef316d4c9a)" style="fill: #b24745; stroke: #b24745; stroke-width: 0.886227"/>
    <path d="M 111.333566 492.30455 
C 112.391202 492.30455 113.405662 491.884347 114.153523 491.136485 
C 114.901384 490.388624 115.321588 489.374164 115.321588 488.316529 
C 115.321588 487.258893 114.901384 486.244433 114.153523 485.496572 
C 113.405662 484.74871 112.391202 484.328507 111.333566 484.328507 
C 110.275931 484.328507 109.261471 484.74871 108.51361 485.496572 
C 107.765748 486.244433 107.345545 487.258893 107.345545 488.316529 
C 107.345545 489.374164 107.765748 490.388624 108.51361 491.136485 
C 109.261471 491.884347 110.275931 492.30455 111.333566 492.30455 
z
" clip-path="url(#pef316d4c9a)" style="fill: #b24745; stroke: #b24745; stroke-width: 0.886227"/>
    <path d="M 112.347299 488.029765 
C 113.404935 488.029765 114.419395 487.609562 115.167256 486.8617 
C 115.915117 486.113839 116.33532 485.099379 116.33532 484.041744 
C 116.33532 482.984108 115.915117 481.969648 115.167256 481.221787 
C 114.419395 480.473926 113.404935 480.053722 112.347299 480.053722 
C 111.289664 480.053722 110.275204 480.473926 109.527342 481.221787 
C 108.779481 481.969648 108.359278 482.984108 108.359278 484.041744 
C 108.359278 485.099379 108.779481 486.113839 109.527342 486.8617 
C 110.275204 487.609562 111.289664 488.029765 112.347299 488.029765 
z
" clip-path="url(#pef316d4c9a)" style="fill: #b24745; stroke: #b24745; stroke-width: 0.886227"/>
    <path d="M 141.213138 346.603765 
C 142.270774 346.603765 143.285234 346.183562 144.033095 345.4357 
C 144.780956 344.687839 145.201159 343.673379 145.201159 342.615744 
C 145.201159 341.558108 144.780956 340.543648 144.033095 339.795787 
C 143.285234 339.047926 142.270774 338.627723 141.213138 338.627723 
C 140.155502 338.627723 139.141042 339.047926 138.393181 339.795787 
C 137.64532 340.543648 137.225117 341.558108 137.225117 342.615744 
C 137.225117 343.673379 137.64532 344.687839 138.393181 345.4357 
C 139.141042 346.183562 140.155502 346.603765 141.213138 346.603765 
z
" clip-path="url(#pef316d4c9a)" style="fill: #b24745; stroke: #b24745; stroke-width: 0.886227"/>
    <path d="M 109.534056 490.290261 
C 110.591692 490.290261 111.606152 489.870058 112.354013 489.122197 
C 113.101874 488.374335 113.522078 487.359875 113.522078 486.30224 
C 113.522078 485.244604 113.101874 484.230144 112.354013 483.482283 
C 111.606152 482.734422 110.591692 482.314219 109.534056 482.314219 
C 108.476421 482.314219 107.461961 482.734422 106.7141 483.482283 
C 105.966238 484.230144 105.546035 485.244604 105.546035 486.30224 
C 105.546035 487.359875 105.966238 488.374335 106.7141 489.122197 
C 107.461961 489.870058 108.476421 490.290261 109.534056 490.290261 
z
" clip-path="url(#pef316d4c9a)" style="fill: #b24745; stroke: #b24745; stroke-width: 0.886227"/>
    <path d="M 480.661049 354.489265 
C 481.718685 354.489265 482.733145 354.069062 483.481006 353.321201 
C 484.228868 352.573339 484.649071 351.558879 484.649071 350.501244 
C 484.649071 349.443608 484.228868 348.429148 483.481006 347.681287 
C 482.733145 346.933426 481.718685 346.513223 480.661049 346.513223 
C 479.603414 346.513223 478.588954 346.933426 477.841093 347.681287 
C 477.093231 348.429148 476.673028 349.443608 476.673028 350.501244 
C 476.673028 351.558879 477.093231 352.573339 477.841093 353.321201 
C 478.588954 354.069062 479.603414 354.489265 480.661049 354.489265 
z
" clip-path="url(#pef316d4c9a)" style="fill: #b24745; stroke: #b24745; stroke-width: 0.886227"/>
    <path d="M 164.564576 214.311423 
C 165.622212 214.311423 166.636672 213.89122 167.384533 213.143359 
C 168.132394 212.395497 168.552598 211.381037 168.552598 210.323402 
C 168.552598 209.265766 168.132394 208.251306 167.384533 207.503445 
C 166.636672 206.755584 165.622212 206.335381 164.564576 206.335381 
C 163.506941 206.335381 162.492481 206.755584 161.74462 207.503445 
C 160.996758 208.251306 160.576555 209.265766 160.576555 210.323402 
C 160.576555 211.381037 160.996758 212.395497 161.74462 213.143359 
C 162.492481 213.89122 163.506941 214.311423 164.564576 214.311423 
z
" clip-path="url(#pef316d4c9a)" style="fill: #b24745; stroke: #b24745; stroke-width: 0.886227"/>
    <path d="M 136.075319 408.697041 
C 137.132955 408.697041 138.147415 408.276838 138.895276 407.528977 
C 139.643137 406.781116 140.06334 405.766656 140.06334 404.70902 
C 140.06334 403.651385 139.643137 402.636925 138.895276 401.889063 
C 138.147415 401.141202 137.132955 400.720999 136.075319 400.720999 
C 135.017684 400.720999 134.003224 401.141202 133.255362 401.889063 
C 132.507501 402.636925 132.087298 403.651385 132.087298 404.70902 
C 132.087298 405.766656 132.507501 406.781116 133.255362 407.528977 
C 134.003224 408.276838 135.017684 408.697041 136.075319 408.697041 
z
" clip-path="url(#pef316d4c9a)" style="fill: #b24745; stroke: #b24745; stroke-width: 0.886227"/>
    <path d="M 274.153819 239.816438 
C 275.211455 239.816438 276.225915 239.396234 276.973776 238.648373 
C 277.721637 237.900512 278.14184 236.886052 278.14184 235.828416 
C 278.14184 234.770781 277.721637 233.756321 276.973776 233.00846 
C 276.225915 232.260598 275.211455 231.840395 274.153819 231.840395 
C 273.096184 231.840395 272.081724 232.260598 271.333862 233.00846 
C 270.586001 233.756321 270.165798 234.770781 270.165798 235.828416 
C 270.165798 236.886052 270.586001 237.900512 271.333862 238.648373 
C 272.081724 239.396234 273.096184 239.816438 274.153819 239.816438 
z
" clip-path="url(#pef316d4c9a)" style="fill: #00a1d5; stroke: #00a1d5; stroke-width: 0.886227"/>
    <path d="M 281.762287 413.866503 
C 282.819923 413.866503 283.834383 413.4463 284.582244 412.698439 
C 285.330105 411.950578 285.750308 410.936118 285.750308 409.878482 
C 285.750308 408.820847 285.330105 407.806387 284.582244 407.058525 
C 283.834383 406.310664 282.819923 405.890461 281.762287 405.890461 
C 280.704652 405.890461 279.690192 406.310664 278.94233 407.058525 
C 278.194469 407.806387 277.774266 408.820847 277.774266 409.878482 
C 277.774266 410.936118 278.194469 411.950578 278.94233 412.698439 
C 279.690192 413.4463 280.704652 413.866503 281.762287 413.866503 
z
" clip-path="url(#pef316d4c9a)" style="fill: #00a1d5; stroke: #00a1d5; stroke-width: 0.886227"/>
    <path d="M 168.143116 213.066726 
C 169.200751 213.066726 170.215211 212.646523 170.963073 211.898662 
C 171.710934 211.1508 172.131137 210.13634 172.131137 209.078705 
C 172.131137 208.021069 171.710934 207.006609 170.963073 206.258748 
C 170.215211 205.510887 169.200751 205.090684 168.143116 205.090684 
C 167.08548 205.090684 166.07102 205.510887 165.323159 206.258748 
C 164.575298 207.006609 164.155095 208.021069 164.155095 209.078705 
C 164.155095 210.13634 164.575298 211.1508 165.323159 211.898662 
C 166.07102 212.646523 167.08548 213.066726 168.143116 213.066726 
z
" clip-path="url(#pef316d4c9a)" style="fill: #00a1d5; stroke: #00a1d5; stroke-width: 0.886227"/>
    <path d="M 486.070388 356.540058 
C 487.128023 356.540058 488.142483 356.119855 488.890344 355.371994 
C 489.638206 354.624132 490.058409 353.609672 490.058409 352.552037 
C 490.058409 351.494401 489.638206 350.479941 488.890344 349.73208 
C 488.142483 348.984219 487.128023 348.564016 486.070388 348.564016 
C 485.012752 348.564016 483.998292 348.984219 483.250431 349.73208 
C 482.502569 350.479941 482.082366 351.494401 482.082366 352.552037 
C 482.082366 353.609672 482.502569 354.624132 483.250431 355.371994 
C 483.998292 356.119855 485.012752 356.540058 486.070388 356.540058 
z
" clip-path="url(#pef316d4c9a)" style="fill: #00a1d5; stroke: #00a1d5; stroke-width: 0.886227"/>
    <path d="M 411.18921 354.213853 
C 412.246846 354.213853 413.261306 353.79365 414.009167 353.045789 
C 414.757029 352.297927 415.177232 351.283467 415.177232 350.225832 
C 415.177232 349.168196 414.757029 348.153736 414.009167 347.405875 
C 413.261306 346.658014 412.246846 346.237811 411.18921 346.237811 
C 410.131575 346.237811 409.117115 346.658014 408.369254 347.405875 
C 407.621392 348.153736 407.201189 349.168196 407.201189 350.225832 
C 407.201189 351.283467 407.621392 352.297927 408.369254 353.045789 
C 409.117115 353.79365 410.131575 354.213853 411.18921 354.213853 
z
" clip-path="url(#pef316d4c9a)" style="fill: #00a1d5; stroke: #00a1d5; stroke-width: 0.886227"/>
    <path d="M 499.88949 325.195128 
C 500.947126 325.195128 501.961586 324.774925 502.709447 324.027063 
C 503.457308 323.279202 503.877511 322.264742 503.877511 321.207106 
C 503.877511 320.149471 503.457308 319.135011 502.709447 318.38715 
C 501.961586 317.639288 500.947126 317.219085 499.88949 317.219085 
C 498.831855 317.219085 497.817395 317.639288 497.069533 318.38715 
C 496.321672 319.135011 495.901469 320.149471 495.901469 321.207106 
C 495.901469 322.264742 496.321672 323.279202 497.069533 324.027063 
C 497.817395 324.774925 498.831855 325.195128 499.88949 325.195128 
z
" clip-path="url(#pef316d4c9a)" style="fill: #00a1d5; stroke: #00a1d5; stroke-width: 0.886227"/>
    <path d="M 480.638506 309.754702 
C 481.696141 309.754702 482.710601 309.334499 483.458462 308.586638 
C 484.206324 307.838776 484.626527 306.824316 484.626527 305.766681 
C 484.626527 304.709045 484.206324 303.694585 483.458462 302.946724 
C 482.710601 302.198863 481.696141 301.77866 480.638506 301.77866 
C 479.58087 301.77866 478.56641 302.198863 477.818549 302.946724 
C 477.070688 303.694585 476.650484 304.709045 476.650484 305.766681 
C 476.650484 306.824316 477.070688 307.838776 477.818549 308.586638 
C 478.56641 309.334499 479.58087 309.754702 480.638506 309.754702 
z
" clip-path="url(#pef316d4c9a)" style="fill: #00a1d5; stroke: #00a1d5; stroke-width: 0.886227"/>
    <path d="M 501.540563 335.74082 
C 502.598199 335.74082 503.612659 335.320617 504.36052 334.572756 
C 505.108381 333.824895 505.528584 332.810435 505.528584 331.752799 
C 505.528584 330.695164 505.108381 329.680704 504.36052 328.932842 
C 503.612659 328.184981 502.598199 327.764778 501.540563 327.764778 
C 500.482928 327.764778 499.468468 328.184981 498.720606 328.932842 
C 497.972745 329.680704 497.552542 330.695164 497.552542 331.752799 
C 497.552542 332.810435 497.972745 333.824895 498.720606 334.572756 
C 499.468468 335.320617 500.482928 335.74082 501.540563 335.74082 
z
" clip-path="url(#pef316d4c9a)" style="fill: #00a1d5; stroke: #00a1d5; stroke-width: 0.886227"/>
    <path d="M 220.431469 402.690749 
C 221.489105 402.690749 222.503565 402.270546 223.251426 401.522684 
C 223.999288 400.774823 224.419491 399.760363 224.419491 398.702727 
C 224.419491 397.645092 223.999288 396.630632 223.251426 395.882771 
C 222.503565 395.134909 221.489105 394.714706 220.431469 394.714706 
C 219.373834 394.714706 218.359374 395.134909 217.611513 395.882771 
C 216.863651 396.630632 216.443448 397.645092 216.443448 398.702727 
C 216.443448 399.760363 216.863651 400.774823 217.611513 401.522684 
C 218.359374 402.270546 219.373834 402.690749 220.431469 402.690749 
z
" clip-path="url(#pef316d4c9a)" style="fill: #00a1d5; stroke: #00a1d5; stroke-width: 0.886227"/>
    <path d="M 378.852696 285.56305 
C 379.910332 285.56305 380.924792 285.142847 381.672653 284.394986 
C 382.420514 283.647124 382.840717 282.632664 382.840717 281.575029 
C 382.840717 280.517393 382.420514 279.502933 381.672653 278.755072 
C 380.924792 278.007211 379.910332 277.587008 378.852696 277.587008 
C 377.79506 277.587008 376.780601 278.007211 376.032739 278.755072 
C 375.284878 279.502933 374.864675 280.517393 374.864675 281.575029 
C 374.864675 282.632664 375.284878 283.647124 376.032739 284.394986 
C 376.780601 285.142847 377.79506 285.56305 378.852696 285.56305 
z
" clip-path="url(#pef316d4c9a)" style="fill: #00a1d5; stroke: #00a1d5; stroke-width: 0.886227"/>
    <path d="M 476.915977 356.515748 
C 477.973613 356.515748 478.988073 356.095545 479.735934 355.347684 
C 480.483796 354.599822 480.903999 353.585362 480.903999 352.527727 
C 480.903999 351.470091 480.483796 350.455631 479.735934 349.70777 
C 478.988073 348.959909 477.973613 348.539706 476.915977 348.539706 
C 475.858342 348.539706 474.843882 348.959909 474.096021 349.70777 
C 473.348159 350.455631 472.927956 351.470091 472.927956 352.527727 
C 472.927956 353.585362 473.348159 354.599822 474.096021 355.347684 
C 474.843882 356.095545 475.858342 356.515748 476.915977 356.515748 
z
" clip-path="url(#pef316d4c9a)" style="fill: #00a1d5; stroke: #00a1d5; stroke-width: 0.886227"/>
    <path d="M 307.268467 300.581578 
C 308.326102 300.581578 309.340562 300.161375 310.088424 299.413514 
C 310.836285 298.665652 311.256488 297.651192 311.256488 296.593557 
C 311.256488 295.535921 310.836285 294.521461 310.088424 293.7736 
C 309.340562 293.025739 308.326102 292.605536 307.268467 292.605536 
C 306.210831 292.605536 305.196371 293.025739 304.44851 293.7736 
C 303.700649 294.521461 303.280446 295.535921 303.280446 296.593557 
C 303.280446 297.651192 303.700649 298.665652 304.44851 299.413514 
C 305.196371 300.161375 306.210831 300.581578 307.268467 300.581578 
z
" clip-path="url(#pef316d4c9a)" style="fill: #00a1d5; stroke: #00a1d5; stroke-width: 0.886227"/>
    <path d="M 386.828525 340.061364 
C 387.886161 340.061364 388.900621 339.64116 389.648482 338.893299 
C 390.396344 338.145438 390.816547 337.130978 390.816547 336.073342 
C 390.816547 335.015707 390.396344 334.001247 389.648482 333.253386 
C 388.900621 332.505524 387.886161 332.085321 386.828525 332.085321 
C 385.77089 332.085321 384.75643 332.505524 384.008569 333.253386 
C 383.260707 334.001247 382.840504 335.015707 382.840504 336.073342 
C 382.840504 337.130978 383.260707 338.145438 384.008569 338.893299 
C 384.75643 339.64116 385.77089 340.061364 386.828525 340.061364 
z
" clip-path="url(#pef316d4c9a)" style="fill: #00a1d5; stroke: #00a1d5; stroke-width: 0.886227"/>
    <path d="M 425.956392 305.319625 
C 427.014028 305.319625 428.028488 304.899422 428.776349 304.15156 
C 429.52421 303.403699 429.944414 302.389239 429.944414 301.331603 
C 429.944414 300.273968 429.52421 299.259508 428.776349 298.511647 
C 428.028488 297.763785 427.014028 297.343582 425.956392 297.343582 
C 424.898757 297.343582 423.884297 297.763785 423.136436 298.511647 
C 422.388574 299.259508 421.968371 300.273968 421.968371 301.331603 
C 421.968371 302.389239 422.388574 303.403699 423.136436 304.15156 
C 423.884297 304.899422 424.898757 305.319625 425.956392 305.319625 
z
" clip-path="url(#pef316d4c9a)" style="fill: #00a1d5; stroke: #00a1d5; stroke-width: 0.886227"/>
    <path d="M 526.491457 345.709972 
C 527.549092 345.709972 528.563552 345.289769 529.311413 344.541908 
C 530.059275 343.794047 530.479478 342.779587 530.479478 341.721951 
C 530.479478 340.664316 530.059275 339.649856 529.311413 338.901995 
C 528.563552 338.154133 527.549092 337.73393 526.491457 337.73393 
C 525.433821 337.73393 524.419361 338.154133 523.6715 338.901995 
C 522.923638 339.649856 522.503435 340.664316 522.503435 341.721951 
C 522.503435 342.779587 522.923638 343.794047 523.6715 344.541908 
C 524.419361 345.289769 525.433821 345.709972 526.491457 345.709972 
z
" clip-path="url(#pef316d4c9a)" style="fill: #00a1d5; stroke: #00a1d5; stroke-width: 0.886227"/>
    <path d="M 259.202976 345.235476 
C 260.260612 345.235476 261.275072 344.815273 262.022933 344.067411 
C 262.770794 343.31955 263.190997 342.30509 263.190997 341.247455 
C 263.190997 340.189819 262.770794 339.175359 262.022933 338.427498 
C 261.275072 337.679636 260.260612 337.259433 259.202976 337.259433 
C 258.145341 337.259433 257.130881 337.679636 256.383019 338.427498 
C 255.635158 339.175359 255.214955 340.189819 255.214955 341.247455 
C 255.214955 342.30509 255.635158 343.31955 256.383019 344.067411 
C 257.130881 344.815273 258.145341 345.235476 259.202976 345.235476 
z
" clip-path="url(#pef316d4c9a)" style="fill: #00a1d5; stroke: #00a1d5; stroke-width: 0.886227"/>
    <path d="M 183.487464 109.000958 
C 184.5451 109.000958 185.55956 108.580755 186.307421 107.832893 
C 187.055282 107.085032 187.475486 106.070572 187.475486 105.012937 
C 187.475486 103.955301 187.055282 102.940841 186.307421 102.19298 
C 185.55956 101.445118 184.5451 101.024915 183.487464 101.024915 
C 182.429829 101.024915 181.415369 101.445118 180.667508 102.19298 
C 179.919646 102.940841 179.499443 103.955301 179.499443 105.012937 
C 179.499443 106.070572 179.919646 107.085032 180.667508 107.832893 
C 181.415369 108.580755 182.429829 109.000958 183.487464 109.000958 
z
" clip-path="url(#pef316d4c9a)" style="fill: #00a1d5; stroke: #00a1d5; stroke-width: 0.886227"/>
    <path d="M 225.452736 109.351521 
C 226.510372 109.351521 227.524832 108.931318 228.272693 108.183457 
C 229.020554 107.435596 229.440757 106.421136 229.440757 105.3635 
C 229.440757 104.305865 229.020554 103.291405 228.272693 102.543543 
C 227.524832 101.795682 226.510372 101.375479 225.452736 101.375479 
C 224.395101 101.375479 223.380641 101.795682 222.632779 102.543543 
C 221.884918 103.291405 221.464715 104.305865 221.464715 105.3635 
C 221.464715 106.421136 221.884918 107.435596 222.632779 108.183457 
C 223.380641 108.931318 224.395101 109.351521 225.452736 109.351521 
z
" clip-path="url(#pef316d4c9a)" style="fill: #00a1d5; stroke: #00a1d5; stroke-width: 0.886227"/>
   </g>
  </g>
  <g id="patch_4">
   <path d="M 86.445937 511.18625 
L 552.953437 511.18625 
L 552.953437 38.571875 
L 86.445937 38.571875 
L 86.445937 511.18625 
z
" style="fill: none; stroke: #7f7f7f; stroke-linejoin: miter"/>
  </g>
  <g id="text_8">
   <!-- PCA of multiclass i-MAP scores -->
   <g transform="translate(151.903281 25.356562) scale(0.22 -0.22)">
    <defs>
     <path id="DejaVuSans-50" d="M 1259 4147 
L 1259 2394 
L 2053 2394 
Q 2494 2394 2734 2622 
Q 2975 2850 2975 3272 
Q 2975 3691 2734 3919 
Q 2494 4147 2053 4147 
L 1259 4147 
z
M 628 4666 
L 2053 4666 
Q 2838 4666 3239 4311 
Q 3641 3956 3641 3272 
Q 3641 2581 3239 2228 
Q 2838 1875 2053 1875 
L 1259 1875 
L 1259 0 
L 628 0 
L 628 4666 
z
" transform="scale(0.015625)"/>
     <path id="DejaVuSans-43" d="M 4122 4306 
L 4122 3641 
Q 3803 3938 3442 4084 
Q 3081 4231 2675 4231 
Q 1875 4231 1450 3742 
Q 1025 3253 1025 2328 
Q 1025 1406 1450 917 
Q 1875 428 2675 428 
Q 3081 428 3442 575 
Q 3803 722 4122 1019 
L 4122 359 
Q 3791 134 3420 21 
Q 3050 -91 2638 -91 
Q 1578 -91 968 557 
Q 359 1206 359 2328 
Q 359 3453 968 4101 
Q 1578 4750 2638 4750 
Q 3056 4750 3426 4639 
Q 3797 4528 4122 4306 
z
" transform="scale(0.015625)"/>
     <path id="DejaVuSans-41" d="M 2188 4044 
L 1331 1722 
L 3047 1722 
L 2188 4044 
z
M 1831 4666 
L 2547 4666 
L 4325 0 
L 3669 0 
L 3244 1197 
L 1141 1197 
L 716 0 
L 50 0 
L 1831 4666 
z
" transform="scale(0.015625)"/>
     <path id="DejaVuSans-20" transform="scale(0.015625)"/>
     <path id="DejaVuSans-6f" d="M 1959 3097 
Q 1497 3097 1228 2736 
Q 959 2375 959 1747 
Q 959 1119 1226 758 
Q 1494 397 1959 397 
Q 2419 397 2687 759 
Q 2956 1122 2956 1747 
Q 2956 2369 2687 2733 
Q 2419 3097 1959 3097 
z
M 1959 3584 
Q 2709 3584 3137 3096 
Q 3566 2609 3566 1747 
Q 3566 888 3137 398 
Q 2709 -91 1959 -91 
Q 1206 -91 779 398 
Q 353 888 353 1747 
Q 353 2609 779 3096 
Q 1206 3584 1959 3584 
z
" transform="scale(0.015625)"/>
     <path id="DejaVuSans-66" d="M 2375 4863 
L 2375 4384 
L 1825 4384 
Q 1516 4384 1395 4259 
Q 1275 4134 1275 3809 
L 1275 3500 
L 2222 3500 
L 2222 3053 
L 1275 3053 
L 1275 0 
L 697 0 
L 697 3053 
L 147 3053 
L 147 3500 
L 697 3500 
L 697 3744 
Q 697 4328 969 4595 
Q 1241 4863 1831 4863 
L 2375 4863 
z
" transform="scale(0.015625)"/>
     <path id="DejaVuSans-6d" d="M 3328 2828 
Q 3544 3216 3844 3400 
Q 4144 3584 4550 3584 
Q 5097 3584 5394 3201 
Q 5691 2819 5691 2113 
L 5691 0 
L 5113 0 
L 5113 2094 
Q 5113 2597 4934 2840 
Q 4756 3084 4391 3084 
Q 3944 3084 3684 2787 
Q 3425 2491 3425 1978 
L 3425 0 
L 2847 0 
L 2847 2094 
Q 2847 2600 2669 2842 
Q 2491 3084 2119 3084 
Q 1678 3084 1418 2786 
Q 1159 2488 1159 1978 
L 1159 0 
L 581 0 
L 581 3500 
L 1159 3500 
L 1159 2956 
Q 1356 3278 1631 3431 
Q 1906 3584 2284 3584 
Q 2666 3584 2933 3390 
Q 3200 3197 3328 2828 
z
" transform="scale(0.015625)"/>
     <path id="DejaVuSans-75" d="M 544 1381 
L 544 3500 
L 1119 3500 
L 1119 1403 
Q 1119 906 1312 657 
Q 1506 409 1894 409 
Q 2359 409 2629 706 
Q 2900 1003 2900 1516 
L 2900 3500 
L 3475 3500 
L 3475 0 
L 2900 0 
L 2900 538 
Q 2691 219 2414 64 
Q 2138 -91 1772 -91 
Q 1169 -91 856 284 
Q 544 659 544 1381 
z
M 1991 3584 
L 1991 3584 
z
" transform="scale(0.015625)"/>
     <path id="DejaVuSans-6c" d="M 603 4863 
L 1178 4863 
L 1178 0 
L 603 0 
L 603 4863 
z
" transform="scale(0.015625)"/>
     <path id="DejaVuSans-74" d="M 1172 4494 
L 1172 3500 
L 2356 3500 
L 2356 3053 
L 1172 3053 
L 1172 1153 
Q 1172 725 1289 603 
Q 1406 481 1766 481 
L 2356 481 
L 2356 0 
L 1766 0 
Q 1100 0 847 248 
Q 594 497 594 1153 
L 594 3053 
L 172 3053 
L 172 3500 
L 594 3500 
L 594 4494 
L 1172 4494 
z
" transform="scale(0.015625)"/>
     <path id="DejaVuSans-69" d="M 603 3500 
L 1178 3500 
L 1178 0 
L 603 0 
L 603 3500 
z
M 603 4863 
L 1178 4863 
L 1178 4134 
L 603 4134 
L 603 4863 
z
" transform="scale(0.015625)"/>
     <path id="DejaVuSans-63" d="M 3122 3366 
L 3122 2828 
Q 2878 2963 2633 3030 
Q 2388 3097 2138 3097 
Q 1578 3097 1268 2742 
Q 959 2388 959 1747 
Q 959 1106 1268 751 
Q 1578 397 2138 397 
Q 2388 397 2633 464 
Q 2878 531 3122 666 
L 3122 134 
Q 2881 22 2623 -34 
Q 2366 -91 2075 -91 
Q 1284 -91 818 406 
Q 353 903 353 1747 
Q 353 2603 823 3093 
Q 1294 3584 2113 3584 
Q 2378 3584 2631 3529 
Q 2884 3475 3122 3366 
z
" transform="scale(0.015625)"/>
     <path id="DejaVuSans-61" d="M 2194 1759 
Q 1497 1759 1228 1600 
Q 959 1441 959 1056 
Q 959 750 1161 570 
Q 1363 391 1709 391 
Q 2188 391 2477 730 
Q 2766 1069 2766 1631 
L 2766 1759 
L 2194 1759 
z
M 3341 1997 
L 3341 0 
L 2766 0 
L 2766 531 
Q 2569 213 2275 61 
Q 1981 -91 1556 -91 
Q 1019 -91 701 211 
Q 384 513 384 1019 
Q 384 1609 779 1909 
Q 1175 2209 1959 2209 
L 2766 2209 
L 2766 2266 
Q 2766 2663 2505 2880 
Q 2244 3097 1772 3097 
Q 1472 3097 1187 3025 
Q 903 2953 641 2809 
L 641 3341 
Q 956 3463 1253 3523 
Q 1550 3584 1831 3584 
Q 2591 3584 2966 3190 
Q 3341 2797 3341 1997 
z
" transform="scale(0.015625)"/>
     <path id="DejaVuSans-73" d="M 2834 3397 
L 2834 2853 
Q 2591 2978 2328 3040 
Q 2066 3103 1784 3103 
Q 1356 3103 1142 2972 
Q 928 2841 928 2578 
Q 928 2378 1081 2264 
Q 1234 2150 1697 2047 
L 1894 2003 
Q 2506 1872 2764 1633 
Q 3022 1394 3022 966 
Q 3022 478 2636 193 
Q 2250 -91 1575 -91 
Q 1294 -91 989 -36 
Q 684 19 347 128 
L 347 722 
Q 666 556 975 473 
Q 1284 391 1588 391 
Q 1994 391 2212 530 
Q 2431 669 2431 922 
Q 2431 1156 2273 1281 
Q 2116 1406 1581 1522 
L 1381 1569 
Q 847 1681 609 1914 
Q 372 2147 372 2553 
Q 372 3047 722 3315 
Q 1072 3584 1716 3584 
Q 2034 3584 2315 3537 
Q 2597 3491 2834 3397 
z
" transform="scale(0.015625)"/>
     <path id="DejaVuSans-4d" d="M 628 4666 
L 1569 4666 
L 2759 1491 
L 3956 4666 
L 4897 4666 
L 4897 0 
L 4281 0 
L 4281 4097 
L 3078 897 
L 2444 897 
L 1241 4097 
L 1241 0 
L 628 0 
L 628 4666 
z
" transform="scale(0.015625)"/>
     <path id="DejaVuSans-72" d="M 2631 2963 
Q 2534 3019 2420 3045 
Q 2306 3072 2169 3072 
Q 1681 3072 1420 2755 
Q 1159 2438 1159 1844 
L 1159 0 
L 581 0 
L 581 3500 
L 1159 3500 
L 1159 2956 
Q 1341 3275 1631 3429 
Q 1922 3584 2338 3584 
Q 2397 3584 2469 3576 
Q 2541 3569 2628 3553 
L 2631 2963 
z
" transform="scale(0.015625)"/>
     <path id="DejaVuSans-65" d="M 3597 1894 
L 3597 1613 
L 953 1613 
Q 991 1019 1311 708 
Q 1631 397 2203 397 
Q 2534 397 2845 478 
Q 3156 559 3463 722 
L 3463 178 
Q 3153 47 2828 -22 
Q 2503 -91 2169 -91 
Q 1331 -91 842 396 
Q 353 884 353 1716 
Q 353 2575 817 3079 
Q 1281 3584 2069 3584 
Q 2775 3584 3186 3129 
Q 3597 2675 3597 1894 
z
M 3022 2063 
Q 3016 2534 2758 2815 
Q 2500 3097 2075 3097 
Q 1594 3097 1305 2825 
Q 1016 2553 972 2059 
L 3022 2063 
z
" transform="scale(0.015625)"/>
    </defs>
    <use xlink:href="#DejaVuSans-50"/>
    <use xlink:href="#DejaVuSans-43" transform="translate(60.302734 0)"/>
    <use xlink:href="#DejaVuSans-41" transform="translate(130.126953 0)"/>
    <use xlink:href="#DejaVuSans-20" transform="translate(198.535156 0)"/>
    <use xlink:href="#DejaVuSans-6f" transform="translate(230.322266 0)"/>
    <use xlink:href="#DejaVuSans-66" transform="translate(291.503906 0)"/>
    <use xlink:href="#DejaVuSans-20" transform="translate(326.708984 0)"/>
    <use xlink:href="#DejaVuSans-6d" transform="translate(358.496094 0)"/>
    <use xlink:href="#DejaVuSans-75" transform="translate(455.908203 0)"/>
    <use xlink:href="#DejaVuSans-6c" transform="translate(519.287109 0)"/>
    <use xlink:href="#DejaVuSans-74" transform="translate(547.070312 0)"/>
    <use xlink:href="#DejaVuSans-69" transform="translate(586.279297 0)"/>
    <use xlink:href="#DejaVuSans-63" transform="translate(614.0625 0)"/>
    <use xlink:href="#DejaVuSans-6c" transform="translate(669.042969 0)"/>
    <use xlink:href="#DejaVuSans-61" transform="translate(696.826172 0)"/>
    <use xlink:href="#DejaVuSans-73" transform="translate(758.105469 0)"/>
    <use xlink:href="#DejaVuSans-73" transform="translate(810.205078 0)"/>
    <use xlink:href="#DejaVuSans-20" transform="translate(862.304688 0)"/>
    <use xlink:href="#DejaVuSans-69" transform="translate(894.091797 0)"/>
    <use xlink:href="#DejaVuSans-2d" transform="translate(921.875 0)"/>
    <use xlink:href="#DejaVuSans-4d" transform="translate(957.958984 0)"/>
    <use xlink:href="#DejaVuSans-41" transform="translate(1044.238281 0)"/>
    <use xlink:href="#DejaVuSans-50" transform="translate(1112.646484 0)"/>
    <use xlink:href="#DejaVuSans-20" transform="translate(1172.949219 0)"/>
    <use xlink:href="#DejaVuSans-73" transform="translate(1204.736328 0)"/>
    <use xlink:href="#DejaVuSans-63" transform="translate(1256.835938 0)"/>
    <use xlink:href="#DejaVuSans-6f" transform="translate(1311.816406 0)"/>
    <use xlink:href="#DejaVuSans-72" transform="translate(1372.998047 0)"/>
    <use xlink:href="#DejaVuSans-65" transform="translate(1411.861328 0)"/>
    <use xlink:href="#DejaVuSans-73" transform="translate(1473.384766 0)"/>
   </g>
  </g>
  <g id="text_9">
   <!-- PC1 (51.1%) -->
   <g transform="translate(251.363906 562.784688) scale(0.22 -0.22)">
    <defs>
     <path id="DejaVuSans-31" d="M 794 531 
L 1825 531 
L 1825 4091 
L 703 3866 
L 703 4441 
L 1819 4666 
L 2450 4666 
L 2450 531 
L 3481 531 
L 3481 0 
L 794 0 
L 794 531 
z
" transform="scale(0.015625)"/>
     <path id="DejaVuSans-28" d="M 1984 4856 
Q 1566 4138 1362 3434 
Q 1159 2731 1159 2009 
Q 1159 1288 1364 580 
Q 1569 -128 1984 -844 
L 1484 -844 
Q 1016 -109 783 600 
Q 550 1309 550 2009 
Q 550 2706 781 3412 
Q 1013 4119 1484 4856 
L 1984 4856 
z
" transform="scale(0.015625)"/>
     <path id="DejaVuSans-25" d="M 4653 2053 
Q 4381 2053 4226 1822 
Q 4072 1591 4072 1178 
Q 4072 772 4226 539 
Q 4381 306 4653 306 
Q 4919 306 5073 539 
Q 5228 772 5228 1178 
Q 5228 1588 5073 1820 
Q 4919 2053 4653 2053 
z
M 4653 2450 
Q 5147 2450 5437 2106 
Q 5728 1763 5728 1178 
Q 5728 594 5436 251 
Q 5144 -91 4653 -91 
Q 4153 -91 3862 251 
Q 3572 594 3572 1178 
Q 3572 1766 3864 2108 
Q 4156 2450 4653 2450 
z
M 1428 4353 
Q 1159 4353 1004 4120 
Q 850 3888 850 3481 
Q 850 3069 1003 2837 
Q 1156 2606 1428 2606 
Q 1700 2606 1854 2837 
Q 2009 3069 2009 3481 
Q 2009 3884 1853 4118 
Q 1697 4353 1428 4353 
z
M 4250 4750 
L 4750 4750 
L 1831 -91 
L 1331 -91 
L 4250 4750 
z
M 1428 4750 
Q 1922 4750 2215 4408 
Q 2509 4066 2509 3481 
Q 2509 2891 2217 2550 
Q 1925 2209 1428 2209 
Q 931 2209 642 2551 
Q 353 2894 353 3481 
Q 353 4063 643 4406 
Q 934 4750 1428 4750 
z
" transform="scale(0.015625)"/>
     <path id="DejaVuSans-29" d="M 513 4856 
L 1013 4856 
Q 1481 4119 1714 3412 
Q 1947 2706 1947 2009 
Q 1947 1309 1714 600 
Q 1481 -109 1013 -844 
L 513 -844 
Q 928 -128 1133 580 
Q 1338 1288 1338 2009 
Q 1338 2731 1133 3434 
Q 928 4138 513 4856 
z
" transform="scale(0.015625)"/>
    </defs>
    <use xlink:href="#DejaVuSans-50"/>
    <use xlink:href="#DejaVuSans-43" transform="translate(60.302734 0)"/>
    <use xlink:href="#DejaVuSans-31" transform="translate(130.126953 0)"/>
    <use xlink:href="#DejaVuSans-20" transform="translate(193.75 0)"/>
    <use xlink:href="#DejaVuSans-28" transform="translate(225.537109 0)"/>
    <use xlink:href="#DejaVuSans-35" transform="translate(264.550781 0)"/>
    <use xlink:href="#DejaVuSans-31" transform="translate(328.173828 0)"/>
    <use xlink:href="#DejaVuSans-2e" transform="translate(391.796875 0)"/>
    <use xlink:href="#DejaVuSans-31" transform="translate(423.583984 0)"/>
    <use xlink:href="#DejaVuSans-25" transform="translate(487.207031 0)"/>
    <use xlink:href="#DejaVuSans-29" transform="translate(582.226562 0)"/>
   </g>
  </g>
  <g id="text_10">
   <!-- PC2 (48.9%) -->
   <g transform="translate(25.356563 343.214844) rotate(-90) scale(0.22 -0.22)">
    <defs>
     <path id="DejaVuSans-32" d="M 1228 531 
L 3431 531 
L 3431 0 
L 469 0 
L 469 531 
Q 828 903 1448 1529 
Q 2069 2156 2228 2338 
Q 2531 2678 2651 2914 
Q 2772 3150 2772 3378 
Q 2772 3750 2511 3984 
Q 2250 4219 1831 4219 
Q 1534 4219 1204 4116 
Q 875 4013 500 3803 
L 500 4441 
Q 881 4594 1212 4672 
Q 1544 4750 1819 4750 
Q 2544 4750 2975 4387 
Q 3406 4025 3406 3419 
Q 3406 3131 3298 2873 
Q 3191 2616 2906 2266 
Q 2828 2175 2409 1742 
Q 1991 1309 1228 531 
z
" transform="scale(0.015625)"/>
     <path id="DejaVuSans-39" d="M 703 97 
L 703 672 
Q 941 559 1184 500 
Q 1428 441 1663 441 
Q 2288 441 2617 861 
Q 2947 1281 2994 2138 
Q 2813 1869 2534 1725 
Q 2256 1581 1919 1581 
Q 1219 1581 811 2004 
Q 403 2428 403 3163 
Q 403 3881 828 4315 
Q 1253 4750 1959 4750 
Q 2769 4750 3195 4129 
Q 3622 3509 3622 2328 
Q 3622 1225 3098 567 
Q 2575 -91 1691 -91 
Q 1453 -91 1209 -44 
Q 966 3 703 97 
z
M 1959 2075 
Q 2384 2075 2632 2365 
Q 2881 2656 2881 3163 
Q 2881 3666 2632 3958 
Q 2384 4250 1959 4250 
Q 1534 4250 1286 3958 
Q 1038 3666 1038 3163 
Q 1038 2656 1286 2365 
Q 1534 2075 1959 2075 
z
" transform="scale(0.015625)"/>
    </defs>
    <use xlink:href="#DejaVuSans-50"/>
    <use xlink:href="#DejaVuSans-43" transform="translate(60.302734 0)"/>
    <use xlink:href="#DejaVuSans-32" transform="translate(130.126953 0)"/>
    <use xlink:href="#DejaVuSans-20" transform="translate(193.75 0)"/>
    <use xlink:href="#DejaVuSans-28" transform="translate(225.537109 0)"/>
    <use xlink:href="#DejaVuSans-34" transform="translate(264.550781 0)"/>
    <use xlink:href="#DejaVuSans-38" transform="translate(328.173828 0)"/>
    <use xlink:href="#DejaVuSans-2e" transform="translate(391.796875 0)"/>
    <use xlink:href="#DejaVuSans-39" transform="translate(423.583984 0)"/>
    <use xlink:href="#DejaVuSans-25" transform="translate(487.207031 0)"/>
    <use xlink:href="#DejaVuSans-29" transform="translate(582.226562 0)"/>
   </g>
  </g>
  <g id="patch_5">
   <path d="M 578.873437 361.280625 
L 855.36 361.280625 
L 855.36 188.4775 
L 578.873437 188.4775 
z
" style="fill: #ffffff"/>
  </g>
  <g id="text_11">
   <!-- Mutation -->
   <g transform="translate(579.873437 206.194062) scale(0.22 -0.22)">
    <defs>
     <path id="DejaVuSans-6e" d="M 3513 2113 
L 3513 0 
L 2938 0 
L 2938 2094 
Q 2938 2591 2744 2837 
Q 2550 3084 2163 3084 
Q 1697 3084 1428 2787 
Q 1159 2491 1159 1978 
L 1159 0 
L 581 0 
L 581 3500 
L 1159 3500 
L 1159 2956 
Q 1366 3272 1645 3428 
Q 1925 3584 2291 3584 
Q 2894 3584 3203 3211 
Q 3513 2838 3513 2113 
z
" transform="scale(0.015625)"/>
    </defs>
    <use xlink:href="#DejaVuSans-4d"/>
    <use xlink:href="#DejaVuSans-75" transform="translate(86.279297 0)"/>
    <use xlink:href="#DejaVuSans-74" transform="translate(149.658203 0)"/>
    <use xlink:href="#DejaVuSans-61" transform="translate(188.867188 0)"/>
    <use xlink:href="#DejaVuSans-74" transform="translate(250.146484 0)"/>
    <use xlink:href="#DejaVuSans-69" transform="translate(289.355469 0)"/>
    <use xlink:href="#DejaVuSans-6f" transform="translate(317.138672 0)"/>
    <use xlink:href="#DejaVuSans-6e" transform="translate(378.320312 0)"/>
   </g>
  </g>
  <g id="patch_6">
   <path d="M 579.873437 232.215312 
L 595.713437 232.215312 
L 595.713437 216.375312 
L 579.873437 216.375312 
z
" clip-path="url(#p7b5fbc94fa)" style="fill: #ffffff"/>
  </g>
  <g id="patch_7">
   <path d="M 579.873437 232.215312 
L 595.713437 232.215312 
L 595.713437 216.375312 
L 579.873437 216.375312 
z
" clip-path="url(#p7b5fbc94fa)" style="fill: #b24745; fill-opacity: 0.501961"/>
  </g>
  <g id="text_12">
   <!-- FUS -->
   <g transform="translate(601.473437 230.365937) scale(0.22 -0.22)">
    <defs>
     <path id="DejaVuSans-46" d="M 628 4666 
L 3309 4666 
L 3309 4134 
L 1259 4134 
L 1259 2759 
L 3109 2759 
L 3109 2228 
L 1259 2228 
L 1259 0 
L 628 0 
L 628 4666 
z
" transform="scale(0.015625)"/>
     <path id="DejaVuSans-55" d="M 556 4666 
L 1191 4666 
L 1191 1831 
Q 1191 1081 1462 751 
Q 1734 422 2344 422 
Q 2950 422 3222 751 
Q 3494 1081 3494 1831 
L 3494 4666 
L 4128 4666 
L 4128 1753 
Q 4128 841 3676 375 
Q 3225 -91 2344 -91 
Q 1459 -91 1007 375 
Q 556 841 556 1753 
L 556 4666 
z
" transform="scale(0.015625)"/>
     <path id="DejaVuSans-53" d="M 3425 4513 
L 3425 3897 
Q 3066 4069 2747 4153 
Q 2428 4238 2131 4238 
Q 1616 4238 1336 4038 
Q 1056 3838 1056 3469 
Q 1056 3159 1242 3001 
Q 1428 2844 1947 2747 
L 2328 2669 
Q 3034 2534 3370 2195 
Q 3706 1856 3706 1288 
Q 3706 609 3251 259 
Q 2797 -91 1919 -91 
Q 1588 -91 1214 -16 
Q 841 59 441 206 
L 441 856 
Q 825 641 1194 531 
Q 1563 422 1919 422 
Q 2459 422 2753 634 
Q 3047 847 3047 1241 
Q 3047 1584 2836 1778 
Q 2625 1972 2144 2069 
L 1759 2144 
Q 1053 2284 737 2584 
Q 422 2884 422 3419 
Q 422 4038 858 4394 
Q 1294 4750 2059 4750 
Q 2388 4750 2728 4690 
Q 3069 4631 3425 4513 
z
" transform="scale(0.015625)"/>
    </defs>
    <use xlink:href="#DejaVuSans-46"/>
    <use xlink:href="#DejaVuSans-55" transform="translate(57.519531 0)"/>
    <use xlink:href="#DejaVuSans-53" transform="translate(130.712891 0)"/>
   </g>
  </g>
  <g id="patch_8">
   <path d="M 579.873437 255.507187 
L 595.713437 255.507187 
L 595.713437 239.667187 
L 579.873437 239.667187 
z
" clip-path="url(#p1bd5762b92)" style="fill: #ffffff"/>
  </g>
  <g id="patch_9">
   <path d="M 579.873437 255.507187 
L 595.713437 255.507187 
L 595.713437 239.667187 
L 579.873437 239.667187 
z
" clip-path="url(#p1bd5762b92)" style="fill: #00a1d5; fill-opacity: 0.501961"/>
  </g>
  <g id="text_13">
   <!-- SOD1 -->
   <g transform="translate(601.473437 253.657812) scale(0.22 -0.22)">
    <defs>
     <path id="DejaVuSans-4f" d="M 2522 4238 
Q 1834 4238 1429 3725 
Q 1025 3213 1025 2328 
Q 1025 1447 1429 934 
Q 1834 422 2522 422 
Q 3209 422 3611 934 
Q 4013 1447 4013 2328 
Q 4013 3213 3611 3725 
Q 3209 4238 2522 4238 
z
M 2522 4750 
Q 3503 4750 4090 4092 
Q 4678 3434 4678 2328 
Q 4678 1225 4090 567 
Q 3503 -91 2522 -91 
Q 1538 -91 948 565 
Q 359 1222 359 2328 
Q 359 3434 948 4092 
Q 1538 4750 2522 4750 
z
" transform="scale(0.015625)"/>
     <path id="DejaVuSans-44" d="M 1259 4147 
L 1259 519 
L 2022 519 
Q 2988 519 3436 956 
Q 3884 1394 3884 2338 
Q 3884 3275 3436 3711 
Q 2988 4147 2022 4147 
L 1259 4147 
z
M 628 4666 
L 1925 4666 
Q 3281 4666 3915 4102 
Q 4550 3538 4550 2338 
Q 4550 1131 3912 565 
Q 3275 0 1925 0 
L 628 0 
L 628 4666 
z
" transform="scale(0.015625)"/>
    </defs>
    <use xlink:href="#DejaVuSans-53"/>
    <use xlink:href="#DejaVuSans-4f" transform="translate(63.476562 0)"/>
    <use xlink:href="#DejaVuSans-44" transform="translate(142.1875 0)"/>
    <use xlink:href="#DejaVuSans-31" transform="translate(219.189453 0)"/>
   </g>
  </g>
  <g id="patch_10">
   <path d="M 579.873437 278.799062 
L 595.713437 278.799062 
L 595.713437 262.959063 
L 579.873437 262.959063 
z
" clip-path="url(#pe796871a7d)" style="fill: #ffffff"/>
  </g>
  <g id="patch_11">
   <path d="M 579.873437 278.799062 
L 595.713437 278.799062 
L 595.713437 262.959063 
L 579.873437 262.959063 
z
" clip-path="url(#pe796871a7d)" style="fill: #9a9a9a; fill-opacity: 0.501961"/>
  </g>
  <g id="text_14">
   <!-- WT -->
   <g transform="translate(601.473437 276.949687) scale(0.22 -0.22)">
    <defs>
     <path id="DejaVuSans-57" d="M 213 4666 
L 850 4666 
L 1831 722 
L 2809 4666 
L 3519 4666 
L 4500 722 
L 5478 4666 
L 6119 4666 
L 4947 0 
L 4153 0 
L 3169 4050 
L 2175 0 
L 1381 0 
L 213 4666 
z
" transform="scale(0.015625)"/>
     <path id="DejaVuSans-54" d="M -19 4666 
L 3928 4666 
L 3928 4134 
L 2272 4134 
L 2272 0 
L 1638 0 
L 1638 4134 
L -19 4134 
L -19 4666 
z
" transform="scale(0.015625)"/>
    </defs>
    <use xlink:href="#DejaVuSans-57"/>
    <use xlink:href="#DejaVuSans-54" transform="translate(98.876953 0)"/>
   </g>
  </g>
  <g id="text_15">
   <!-- Confidence -->
   <g transform="translate(579.873437 308.241562) scale(0.22 -0.22)">
    <defs>
     <path id="DejaVuSans-64" d="M 2906 2969 
L 2906 4863 
L 3481 4863 
L 3481 0 
L 2906 0 
L 2906 525 
Q 2725 213 2448 61 
Q 2172 -91 1784 -91 
Q 1150 -91 751 415 
Q 353 922 353 1747 
Q 353 2572 751 3078 
Q 1150 3584 1784 3584 
Q 2172 3584 2448 3432 
Q 2725 3281 2906 2969 
z
M 947 1747 
Q 947 1113 1208 752 
Q 1469 391 1925 391 
Q 2381 391 2643 752 
Q 2906 1113 2906 1747 
Q 2906 2381 2643 2742 
Q 2381 3103 1925 3103 
Q 1469 3103 1208 2742 
Q 947 2381 947 1747 
z
" transform="scale(0.015625)"/>
    </defs>
    <use xlink:href="#DejaVuSans-43"/>
    <use xlink:href="#DejaVuSans-6f" transform="translate(69.824219 0)"/>
    <use xlink:href="#DejaVuSans-6e" transform="translate(131.005859 0)"/>
    <use xlink:href="#DejaVuSans-66" transform="translate(194.384766 0)"/>
    <use xlink:href="#DejaVuSans-69" transform="translate(229.589844 0)"/>
    <use xlink:href="#DejaVuSans-64" transform="translate(257.373047 0)"/>
    <use xlink:href="#DejaVuSans-65" transform="translate(320.849609 0)"/>
    <use xlink:href="#DejaVuSans-6e" transform="translate(382.373047 0)"/>
    <use xlink:href="#DejaVuSans-63" transform="translate(445.751953 0)"/>
    <use xlink:href="#DejaVuSans-65" transform="translate(500.732422 0)"/>
   </g>
  </g>
  <g id="patch_12">
   <path d="M 579.873437 334.262812 
L 595.713437 334.262812 
L 595.713437 318.422813 
L 579.873437 318.422813 
z
" clip-path="url(#p72e59d6dac)" style="fill: #ffffff"/>
  </g>
  <g id="patch_13">
   <path d="M 579.873437 334.262812 
L 595.713437 334.262812 
L 595.713437 318.422813 
L 579.873437 318.422813 
z
" clip-path="url(#p72e59d6dac)" style="fill: #808080; fill-opacity: 0.298039"/>
  </g>
  <g id="text_16">
   <!-- 75% confidence region -->
   <g transform="translate(601.473437 332.413437) scale(0.22 -0.22)">
    <defs>
     <path id="DejaVuSans-37" d="M 525 4666 
L 3525 4666 
L 3525 4397 
L 1831 0 
L 1172 0 
L 2766 4134 
L 525 4134 
L 525 4666 
z
" transform="scale(0.015625)"/>
     <path id="DejaVuSans-67" d="M 2906 1791 
Q 2906 2416 2648 2759 
Q 2391 3103 1925 3103 
Q 1463 3103 1205 2759 
Q 947 2416 947 1791 
Q 947 1169 1205 825 
Q 1463 481 1925 481 
Q 2391 481 2648 825 
Q 2906 1169 2906 1791 
z
M 3481 434 
Q 3481 -459 3084 -895 
Q 2688 -1331 1869 -1331 
Q 1566 -1331 1297 -1286 
Q 1028 -1241 775 -1147 
L 775 -588 
Q 1028 -725 1275 -790 
Q 1522 -856 1778 -856 
Q 2344 -856 2625 -561 
Q 2906 -266 2906 331 
L 2906 616 
Q 2728 306 2450 153 
Q 2172 0 1784 0 
Q 1141 0 747 490 
Q 353 981 353 1791 
Q 353 2603 747 3093 
Q 1141 3584 1784 3584 
Q 2172 3584 2450 3431 
Q 2728 3278 2906 2969 
L 2906 3500 
L 3481 3500 
L 3481 434 
z
" transform="scale(0.015625)"/>
    </defs>
    <use xlink:href="#DejaVuSans-37"/>
    <use xlink:href="#DejaVuSans-35" transform="translate(63.623047 0)"/>
    <use xlink:href="#DejaVuSans-25" transform="translate(127.246094 0)"/>
    <use xlink:href="#DejaVuSans-20" transform="translate(222.265625 0)"/>
    <use xlink:href="#DejaVuSans-63" transform="translate(254.052734 0)"/>
    <use xlink:href="#DejaVuSans-6f" transform="translate(309.033203 0)"/>
    <use xlink:href="#DejaVuSans-6e" transform="translate(370.214844 0)"/>
    <use xlink:href="#DejaVuSans-66" transform="translate(433.59375 0)"/>
    <use xlink:href="#DejaVuSans-69" transform="translate(468.798828 0)"/>
    <use xlink:href="#DejaVuSans-64" transform="translate(496.582031 0)"/>
    <use xlink:href="#DejaVuSans-65" transform="translate(560.058594 0)"/>
    <use xlink:href="#DejaVuSans-6e" transform="translate(621.582031 0)"/>
    <use xlink:href="#DejaVuSans-63" transform="translate(684.960938 0)"/>
    <use xlink:href="#DejaVuSans-65" transform="translate(739.941406 0)"/>
    <use xlink:href="#DejaVuSans-20" transform="translate(801.464844 0)"/>
    <use xlink:href="#DejaVuSans-72" transform="translate(833.251953 0)"/>
    <use xlink:href="#DejaVuSans-65" transform="translate(872.115234 0)"/>
    <use xlink:href="#DejaVuSans-67" transform="translate(933.638672 0)"/>
    <use xlink:href="#DejaVuSans-69" transform="translate(997.115234 0)"/>
    <use xlink:href="#DejaVuSans-6f" transform="translate(1024.898438 0)"/>
    <use xlink:href="#DejaVuSans-6e" transform="translate(1086.080078 0)"/>
   </g>
  </g>
  <g id="patch_14">
   <path d="M 579.873437 357.554688 
L 595.713437 357.554688 
L 595.713437 341.714688 
L 579.873437 341.714688 
z
" clip-path="url(#p855ded7d50)" style="fill: #ffffff"/>
  </g>
  <g id="patch_15">
   <path d="M 579.873437 357.554688 
L 595.713437 357.554688 
L 595.713437 341.714688 
L 579.873437 341.714688 
z
" clip-path="url(#p855ded7d50)" style="fill: #808080; fill-opacity: 0.6"/>
  </g>
  <g id="text_17">
   <!-- 90% confidence region -->
   <g transform="translate(601.473437 355.705312) scale(0.22 -0.22)">
    <use xlink:href="#DejaVuSans-39"/>
    <use xlink:href="#DejaVuSans-30" transform="translate(63.623047 0)"/>
    <use xlink:href="#DejaVuSans-25" transform="translate(127.246094 0)"/>
    <use xlink:href="#DejaVuSans-20" transform="translate(222.265625 0)"/>
    <use xlink:href="#DejaVuSans-63" transform="translate(254.052734 0)"/>
    <use xlink:href="#DejaVuSans-6f" transform="translate(309.033203 0)"/>
    <use xlink:href="#DejaVuSans-6e" transform="translate(370.214844 0)"/>
    <use xlink:href="#DejaVuSans-66" transform="translate(433.59375 0)"/>
    <use xlink:href="#DejaVuSans-69" transform="translate(468.798828 0)"/>
    <use xlink:href="#DejaVuSans-64" transform="translate(496.582031 0)"/>
    <use xlink:href="#DejaVuSans-65" transform="translate(560.058594 0)"/>
    <use xlink:href="#DejaVuSans-6e" transform="translate(621.582031 0)"/>
    <use xlink:href="#DejaVuSans-63" transform="translate(684.960938 0)"/>
    <use xlink:href="#DejaVuSans-65" transform="translate(739.941406 0)"/>
    <use xlink:href="#DejaVuSans-20" transform="translate(801.464844 0)"/>
    <use xlink:href="#DejaVuSans-72" transform="translate(833.251953 0)"/>
    <use xlink:href="#DejaVuSans-65" transform="translate(872.115234 0)"/>
    <use xlink:href="#DejaVuSans-67" transform="translate(933.638672 0)"/>
    <use xlink:href="#DejaVuSans-69" transform="translate(997.115234 0)"/>
    <use xlink:href="#DejaVuSans-6f" transform="translate(1024.898438 0)"/>
    <use xlink:href="#DejaVuSans-6e" transform="translate(1086.080078 0)"/>
   </g>
  </g>
 </g>
 <defs>
  <clipPath id="pef316d4c9a">
   <rect x="86.445937" y="38.571875" width="466.5075" height="472.614375"/>
  </clipPath>
  <clipPath id="p7b5fbc94fa">
   <path d="M 579.873437 232.215312 
L 579.873437 216.375312 
L 595.713437 216.375312 
L 595.713437 232.215312 
"/>
  </clipPath>
  <clipPath id="p1bd5762b92">
   <path d="M 579.873437 255.507187 
L 579.873437 239.667187 
L 595.713437 239.667187 
L 595.713437 255.507187 
"/>
  </clipPath>
  <clipPath id="pe796871a7d">
   <path d="M 579.873437 278.799062 
L 579.873437 262.959063 
L 595.713437 262.959063 
L 595.713437 278.799062 
"/>
  </clipPath>
  <clipPath id="p72e59d6dac">
   <path d="M 579.873437 334.262812 
L 579.873437 318.422813 
L 595.713437 318.422813 
L 595.713437 334.262812 
"/>
  </clipPath>
  <clipPath id="p855ded7d50">
   <path d="M 579.873437 357.554688 
L 579.873437 341.714688 
L 595.713437 341.714688 
L 595.713437 357.554688 
"/>
  </clipPath>
 </defs>
</svg>
